<svg width="207" height="50" viewBox="0 0 207 50" fill="none" xmlns="http://www.w3.org/2000/svg">
<path d="M56.4193 37.3426V26.7067H54.4063V25.0566H60.7327V26.7067H58.7403V37.3426H56.4193Z" fill="#A1C654"/>
<path d="M61.9238 37.3426V25.0566H64.2243V30.2056H66.8124V25.0566H69.1335V37.3426H66.833V31.796H64.2449V37.3426H61.9238Z" fill="#A1C654"/>
<path d="M71.0851 37.3426V25.0566H76.4255V26.6272H73.4061V30.1658H75.7682V31.7364H73.4061V35.8118H76.4461V37.3625H71.0851V37.3426Z" fill="#A1C654"/>
<path d="M81.6428 37.3426V25.0566H83.9433V30.2056H86.5314V25.0566H88.8524V37.3426H86.5314V31.796H83.9433V37.3426H81.6428Z" fill="#A1C654"/>
<path d="M94.2545 37.5184C93.3508 37.5184 92.6319 37.3594 92.0978 37.0413C91.5638 36.7232 91.1735 36.2461 90.9476 35.6497C90.7216 35.0334 90.5984 34.3177 90.5984 33.5026V28.9103C90.5984 28.0753 90.7216 27.3795 90.9476 26.7831C91.1735 26.1867 91.5638 25.7294 92.0978 25.4312C92.6319 25.1131 93.3508 24.9541 94.2545 24.9541C95.1789 24.9541 95.8978 25.1131 96.4318 25.4312C96.9659 25.7493 97.3356 26.2065 97.5821 26.7831C97.8285 27.3596 97.9312 28.0952 97.9312 28.9103V33.5225C97.9312 34.3376 97.808 35.0532 97.5821 35.6497C97.3561 36.2461 96.9659 36.7232 96.4318 37.0413C95.8978 37.3395 95.1789 37.5184 94.2545 37.5184ZM94.2545 35.8485C94.6448 35.8485 94.9324 35.7689 95.1172 35.6099C95.3021 35.4508 95.4253 35.2322 95.487 34.934C95.5486 34.6556 95.5897 34.3376 95.5897 33.9996V28.3536C95.5897 28.0156 95.5486 27.6976 95.487 27.4192C95.4253 27.1409 95.3021 26.9222 95.1172 26.7831C94.9324 26.624 94.6448 26.5445 94.2545 26.5445C93.8848 26.5445 93.6178 26.624 93.4329 26.7831C93.2481 26.9421 93.1248 27.1608 93.0632 27.4192C93.0016 27.6976 92.9605 27.9958 92.9605 28.3536V34.0195C92.9605 34.3574 92.981 34.6556 93.0427 34.9538C93.1043 35.2322 93.2275 35.4508 93.4124 35.6298C93.5973 35.7689 93.8848 35.8485 94.2545 35.8485Z" fill="#A1C654"/>
<path d="M103.107 37.5212C102.162 37.5212 101.443 37.3621 100.909 37.0242C100.375 36.6862 100.026 36.2091 99.8207 35.5928C99.6153 34.9765 99.5126 34.2409 99.5126 33.3861V25.0762H101.772V33.6445C101.772 34.0223 101.793 34.4 101.854 34.738C101.916 35.0759 102.039 35.3542 102.224 35.553C102.409 35.7519 102.717 35.8711 103.087 35.8711C103.497 35.8711 103.785 35.7717 103.97 35.553C104.155 35.3542 104.278 35.0759 104.34 34.738C104.401 34.4 104.422 34.0421 104.422 33.6445V25.0762H106.661V33.3861C106.661 34.2409 106.558 34.9765 106.373 35.5928C106.168 36.2091 105.818 36.6862 105.305 37.0242C104.791 37.3423 104.073 37.5212 103.107 37.5212Z" fill="#A1C654"/>
<path d="M111.714 37.5194C110.954 37.5194 110.317 37.3803 109.803 37.0821C109.29 36.7839 108.9 36.3664 108.653 35.8097C108.386 35.2531 108.242 34.5772 108.222 33.7621L110.214 33.3843C110.235 33.8615 110.296 34.279 110.399 34.6368C110.502 34.9946 110.645 35.273 110.851 35.4718C111.056 35.6706 111.323 35.77 111.652 35.77C112.022 35.77 112.289 35.6706 112.453 35.4519C112.617 35.2332 112.679 34.9549 112.679 34.6169C112.679 34.0802 112.556 33.6428 112.309 33.3048C112.063 32.9669 111.714 32.609 111.303 32.2711L109.701 30.8993C109.249 30.5216 108.9 30.1041 108.633 29.6469C108.366 29.1896 108.242 28.6131 108.242 27.9372C108.242 26.9631 108.53 26.2076 109.126 25.6907C109.701 25.1738 110.502 24.8955 111.529 24.8955C112.124 24.8955 112.617 24.975 113.028 25.154C113.418 25.3329 113.747 25.5714 113.973 25.8895C114.199 26.2076 114.384 26.5654 114.507 26.9631C114.63 27.3607 114.692 27.7781 114.733 28.2354L112.761 28.5733C112.741 28.1956 112.7 27.8378 112.638 27.5396C112.576 27.2414 112.453 27.0028 112.268 26.8239C112.104 26.645 111.837 26.5654 111.508 26.5654C111.159 26.5654 110.892 26.6648 110.707 26.8835C110.522 27.1022 110.44 27.3805 110.44 27.6986C110.44 28.1161 110.522 28.4541 110.707 28.7324C110.892 29.0107 111.138 29.2691 111.467 29.5673L113.049 30.9192C113.562 31.3367 114.014 31.8337 114.384 32.4102C114.754 32.9867 114.938 33.6627 114.938 34.4778C114.938 35.0742 114.815 35.5911 114.548 36.0483C114.281 36.5055 113.911 36.8634 113.439 37.1218C112.905 37.3803 112.35 37.5194 111.714 37.5194Z" fill="#A1C654"/>
<path d="M116.13 37.3426V25.0566H121.47V26.6272H118.451V30.1658H120.813V31.7364H118.451V35.8118H121.491V37.3625H116.13V37.3426Z" fill="#A1C654"/>
<path d="M130.097 37.5184C129.193 37.5184 128.474 37.3594 127.94 37.0413C127.406 36.7232 127.016 36.2461 126.79 35.6497C126.564 35.0334 126.441 34.3177 126.441 33.5026V28.9103C126.441 28.0753 126.564 27.3795 126.79 26.7831C127.016 26.1867 127.406 25.7294 127.94 25.4312C128.474 25.1131 129.193 24.9541 130.097 24.9541C131.021 24.9541 131.74 25.1131 132.274 25.4312C132.808 25.7493 133.178 26.2065 133.425 26.7831C133.671 27.3596 133.774 28.0952 133.774 28.9103V33.5225C133.774 34.3376 133.651 35.0532 133.425 35.6497C133.199 36.2461 132.808 36.7232 132.274 37.0413C131.74 37.3395 131.021 37.5184 130.097 37.5184ZM130.097 35.8485C130.487 35.8485 130.775 35.7689 130.96 35.6099C131.145 35.4508 131.268 35.2322 131.33 34.934C131.391 34.6556 131.432 34.3376 131.432 33.9996V28.3536C131.432 28.0156 131.391 27.6976 131.33 27.4192C131.268 27.1409 131.145 26.9222 130.96 26.7831C130.775 26.624 130.487 26.5445 130.097 26.5445C129.727 26.5445 129.46 26.624 129.275 26.7831C129.091 26.9421 128.967 27.1608 128.906 27.4192C128.844 27.6976 128.803 27.9958 128.803 28.3536V34.0195C128.803 34.3574 128.824 34.6556 128.885 34.9538C128.947 35.2322 129.07 35.4508 129.255 35.6298C129.44 35.7689 129.727 35.8485 130.097 35.8485Z" fill="#A1C654"/>
<path d="M135.479 37.3426V25.0566H140.696V26.6073H137.8V30.1857H140.162V31.7563H137.8V37.3625H135.479V37.3426Z" fill="#A1C654"/>
<path d="M149.138 37.5171C148.214 37.5171 147.474 37.3382 146.94 36.9804C146.406 36.6225 146.036 36.1454 145.831 35.5291C145.626 34.9128 145.523 34.217 145.523 33.4218V29.0283C145.523 28.1933 145.626 27.4578 145.831 26.8415C146.036 26.2252 146.406 25.7481 146.94 25.4101C147.474 25.0721 148.193 24.9131 149.138 24.9131C150.021 24.9131 150.699 25.0522 151.192 25.3505C151.685 25.6487 152.034 26.0462 152.26 26.583C152.466 27.1198 152.568 27.7361 152.568 28.4518V29.4855H150.35V28.4319C150.35 28.0939 150.329 27.7758 150.288 27.4975C150.247 27.2192 150.145 26.9806 149.98 26.8216C149.816 26.6625 149.528 26.5631 149.138 26.5631C148.748 26.5631 148.46 26.6427 148.275 26.8216C148.09 27.0005 147.967 27.2391 147.926 27.5373C147.865 27.8355 147.844 28.1734 147.844 28.5512V33.8989C147.844 34.3363 147.885 34.714 147.947 34.9923C148.029 35.2906 148.152 35.4894 148.337 35.6484C148.522 35.7876 148.789 35.8671 149.138 35.8671C149.528 35.8671 149.795 35.7876 149.96 35.6086C150.124 35.4297 150.227 35.1911 150.268 34.9128C150.309 34.6345 150.329 34.2965 150.329 33.9188V32.8055H152.548V33.7995C152.548 34.5351 152.445 35.1713 152.24 35.7279C152.034 36.2846 151.685 36.7219 151.192 37.04C150.74 37.3581 150.042 37.5171 149.138 37.5171Z" fill="#A1C654"/>
<path d="M153.554 37.3426L156.101 25.0566H158.587L161.134 37.3426H158.956L158.463 34.4997H156.245L155.731 37.3426H153.554ZM156.471 33.0882H158.196L157.334 27.9194L156.471 33.0882Z" fill="#A1C654"/>
<path d="M162.305 37.3426V25.0566H163.927L167.008 32.0744V25.0566H168.918V37.3426H167.378L164.276 29.9869V37.3426H162.305Z" fill="#A1C654"/>
<path d="M170.849 37.3426V25.0566H172.472L175.553 32.0744V25.0566H177.463V37.3426H175.923L172.821 29.9869V37.3426H170.849Z" fill="#A1C654"/>
<path d="M178.757 37.3426L181.304 25.0566H183.789L186.336 37.3426H184.18L183.687 34.4997H181.468L180.955 37.3426H178.757ZM181.694 33.0882H183.42L182.557 27.9194L181.694 33.0882Z" fill="#A1C654"/>
<path d="M187.528 37.3426V25.0566H190.65C191.204 25.0566 191.718 25.1163 192.17 25.2157C192.622 25.3151 193.012 25.494 193.341 25.7326C193.669 25.9711 193.916 26.2892 194.101 26.6868C194.286 27.0844 194.368 27.6013 194.368 28.2176C194.368 28.7146 194.306 29.1321 194.162 29.4899C194.018 29.8478 193.813 30.1261 193.546 30.3249C193.279 30.5237 192.93 30.6629 192.519 30.7424C193.012 30.8219 193.443 31.0008 193.772 31.2593C194.101 31.5177 194.347 31.8557 194.511 32.2732C194.676 32.6906 194.758 33.1876 194.758 33.784C194.758 34.3805 194.676 34.8973 194.532 35.3347C194.388 35.7919 194.162 36.1498 193.854 36.448C193.546 36.7462 193.176 36.9649 192.745 37.1239C192.293 37.283 191.78 37.3426 191.184 37.3426H187.528ZM189.849 30.0664H190.629C191.081 30.0664 191.451 30.0068 191.697 29.8676C191.944 29.7285 192.129 29.5297 192.231 29.2514C192.334 28.973 192.375 28.6351 192.375 28.2176C192.375 27.7802 192.293 27.4423 192.149 27.2037C192.006 26.9651 191.78 26.8061 191.471 26.7266C191.163 26.6471 190.773 26.6073 190.301 26.6073H189.849V30.0664ZM189.849 35.7721H190.732C191.43 35.7721 191.903 35.613 192.149 35.2751C192.396 34.9371 192.519 34.4401 192.519 33.7443C192.519 33.2473 192.457 32.8497 192.334 32.5316C192.211 32.2135 192.006 31.9948 191.739 31.8358C191.471 31.6767 191.102 31.6171 190.629 31.6171H189.828V35.7721H189.849Z" fill="#A1C654"/>
<path d="M196.319 37.3426V25.0566H198.599V37.3426H196.319Z" fill="#A1C654"/>
<path d="M203.775 37.5194C203.015 37.5194 202.378 37.3803 201.865 37.0821C201.351 36.7839 200.961 36.3664 200.715 35.8097C200.448 35.2531 200.304 34.5772 200.283 33.7621L202.276 33.3843C202.296 33.8615 202.358 34.279 202.461 34.6368C202.563 34.9946 202.707 35.273 202.912 35.4718C203.118 35.6706 203.385 35.77 203.713 35.77C204.083 35.77 204.35 35.6706 204.515 35.4519C204.679 35.2332 204.741 34.9549 204.741 34.6169C204.741 34.0802 204.617 33.6428 204.371 33.3048C204.124 32.9669 203.775 32.609 203.364 32.2711L201.762 30.8993C201.31 30.5216 200.961 30.1041 200.694 29.6469C200.427 29.1896 200.304 28.6131 200.304 27.9372C200.304 26.9631 200.591 26.2076 201.187 25.6907C201.762 25.1738 202.563 24.8955 203.59 24.8955C204.186 24.8955 204.679 24.975 205.09 25.154C205.48 25.3329 205.809 25.5714 206.035 25.8895C206.26 26.2076 206.445 26.5654 206.569 26.9631C206.692 27.3607 206.753 27.7781 206.795 28.2354L204.823 28.5733C204.802 28.1956 204.761 27.8378 204.699 27.5396C204.638 27.2414 204.515 27.0028 204.33 26.8239C204.165 26.645 203.898 26.5654 203.57 26.5654C203.221 26.5654 202.953 26.6648 202.769 26.8835C202.584 27.1022 202.502 27.3805 202.502 27.6986C202.502 28.1161 202.584 28.4541 202.769 28.7324C202.953 29.0107 203.2 29.2691 203.529 29.5673L205.11 30.9192C205.624 31.3367 206.076 31.8337 206.445 32.4102C206.815 32.9867 207 33.6627 207 34.4778C207 35.0742 206.877 35.5911 206.61 36.0483C206.343 36.5055 205.973 36.8634 205.5 37.1218C204.966 37.3803 204.412 37.5194 203.775 37.5194Z" fill="#A1C654"/>
<path d="M48.8593 35.451C47.7838 35.3571 46.8418 34.427 46.475 34.2905C46.1082 34.154 46.3416 33.8212 46.4333 33.5481C46.525 33.2665 45.2078 33.5908 44.1157 33.5481C43.0235 33.5055 43.3403 33.3177 43.2069 33.13C43.0736 32.9423 42.6651 33.2239 42.0231 33.13C41.1227 33.002 41.5479 31.3636 41.8897 30.9028C42.4816 30.1007 43.3987 29.6229 44.2157 29.1024C45.4745 28.2917 46.5917 27.6603 48.0423 27.3189C48.3007 27.2592 48.6509 27.2251 48.8593 27.0544C48.4424 26.8923 47.8255 27.0203 47.3837 27.0373C46.3749 27.0885 45.0661 26.9605 44.5825 25.8939C43.8072 24.1702 45.1661 22.3782 46.1748 21.1324C46.1748 21.1324 45.1994 21.5079 44.8326 20.6887C44.4908 19.9292 45.9581 15.5603 46.1498 14.9886C46.1582 14.9715 46.1665 14.9459 46.1748 14.9288C46.1915 14.8435 46.1332 14.7496 46.0498 14.7496C45.9998 14.7496 45.9664 14.7838 45.9331 14.8179C45.0327 15.62 43.5821 17.4632 42.1982 17.2157C41.9481 17.173 41.7063 16.9768 41.6146 16.7378C41.5563 16.6013 41.4646 16.644 41.3562 16.789C40.7893 17.5826 39.6805 17.9752 38.7718 17.6168C38.43 17.4802 38.1048 17.2157 37.9631 16.8744C37.9214 16.772 37.7797 16.7293 37.7213 16.8146C36.9293 18.0349 36.054 19.2381 35.0286 20.262C34.6701 20.6204 33.4362 21.9004 32.8777 21.5164C32.169 21.03 32.8943 17.8045 33.0111 17.0706C33.1528 16.1832 34.4533 12.9406 34.9785 11.6265C35.1203 11.2852 35.0119 11.3022 34.9118 11.4132C34.2532 12.1556 33.4196 12.8979 32.4442 13.0259C31.0352 13.2137 30.4517 11.9422 30.6351 10.722C30.6768 10.4319 30.2682 10.3551 30.0932 10.2185C29.4179 9.70655 29.6013 8.26445 29.7097 7.36847C29.718 7.26607 29.6513 7.11247 29.4929 7.15514C29.0344 7.28314 28.5509 7.4026 28.0757 7.38554C27.3504 7.36847 27.2087 7.12101 26.9752 6.45542C26.6334 5.49118 26.425 4.4672 26.35 3.44323C26.2833 2.54725 26.2666 1.6598 26.0082 0.80649C25.9415 0.593162 25.6413 -0.0980222 25.5246 0.439565C25.3829 1.07102 25.3245 1.71953 25.1745 2.35099C25.1411 2.47045 25.0828 2.58991 25.0578 2.70085C24.9827 3.01657 24.9911 3.29816 24.9661 3.61389C24.941 3.94668 24.891 4.27947 24.8327 4.61227C24.7243 5.23519 24.5576 5.8581 24.3491 6.45542C24.1157 7.12954 23.974 7.36847 23.2487 7.38554C22.7735 7.39407 22.2816 7.28314 21.8314 7.15514C21.6814 7.11247 21.6063 7.25754 21.6147 7.36847C21.723 8.25591 21.8981 9.69801 21.2312 10.2185C21.0561 10.3551 20.6476 10.4233 20.6893 10.722C20.8727 11.9422 20.2891 13.2051 18.8802 13.0259C17.9048 12.8979 17.0711 12.1556 16.4125 11.4132C16.3125 11.2937 16.2041 11.2852 16.3458 11.6265C16.8794 12.9321 18.1716 16.1747 18.3133 17.0706C18.43 17.8045 19.1553 21.03 18.4467 21.5164C17.8881 21.9004 16.6543 20.6204 16.2958 20.262C15.262 19.2381 14.395 18.0349 13.603 16.8146C13.5447 16.7208 13.4029 16.772 13.3612 16.8744C13.2279 17.2157 12.9027 17.4802 12.5526 17.6168C11.6439 17.9752 10.5351 17.5912 9.96818 16.789C9.8598 16.6355 9.76809 16.5928 9.70974 16.7378C9.6097 16.9682 9.37627 17.1645 9.12616 17.2157C7.74226 17.4632 6.29166 15.62 5.39128 14.8179C5.35794 14.7838 5.31625 14.7582 5.27457 14.7496C5.1912 14.7496 5.14118 14.8435 5.14951 14.9288C5.14951 14.9544 5.15785 14.9715 5.17453 14.9886C5.36627 15.5688 6.83355 19.9292 6.49174 20.6887C6.12492 21.5079 5.14951 21.1324 5.14951 21.1324C6.15827 22.3782 7.5255 24.1787 6.74184 25.8939C6.25831 26.9605 4.95777 27.0885 3.94068 27.0373C3.49883 27.0117 2.89025 26.8923 2.46507 27.0544C2.67349 27.2165 3.02363 27.2507 3.28208 27.3189C4.74101 27.6603 5.8498 28.2917 7.10866 29.1024C7.92566 29.6314 8.84271 30.1007 9.43462 30.9028C9.7681 31.3636 10.1933 33.002 9.30123 33.13C8.66764 33.2239 8.25914 32.9423 8.11741 33.13C7.98402 33.3177 8.30082 33.5055 7.2087 33.5481C6.11658 33.5908 4.79937 33.2665 4.89107 33.5481C4.98278 33.8297 5.20787 34.154 4.84939 34.2905C4.48257 34.427 3.54052 35.3571 2.46507 35.451C1.38962 35.5449 -0.244386 35.5449 0.0307282 35.7753C0.305842 36.0057 2.30667 36.3299 3.07366 36.5688C3.84898 36.7992 5.52467 37.2686 5.48299 38.0109C5.4413 38.7533 4.89941 38.9411 4.89941 38.9411H5.7581C6.3917 38.9411 8.07573 39.1715 8.80103 39.7773C9.52633 40.3832 9.93483 40.7501 9.80144 41.6375C9.66805 42.525 9.16785 43.1223 8.66764 43.4977C8.16743 43.8732 8.85105 43.822 9.61803 43.4977C10.3934 43.1735 11.3938 42.4738 12.5693 42.4311C13.7531 42.3884 15.162 43.0967 15.2954 43.7623C15.4288 44.4279 15.162 45.9212 14.7952 46.8513C14.4284 47.7814 13.478 49.0358 13.0194 49.5051C12.5609 49.9744 13.3863 49.8293 14.7035 48.8054C16.0207 47.7814 15.8373 48.7115 16.1541 48.4299C16.4709 48.1483 16.4709 47.6875 16.9294 47.5425C17.3212 47.423 17.7047 47.1414 18.0632 46.9451C18.6718 46.6123 19.2804 46.2795 19.9056 45.9894C20.3308 45.7932 20.906 45.4433 21.3812 45.5116C21.6897 45.5542 21.7064 45.998 21.6814 46.2539C21.6564 46.5697 21.5813 46.7745 21.9731 46.6123C22.4483 46.4161 23.974 44.4364 24.8077 42.5079C25.2162 41.5607 25.3829 40.2552 25.2912 39.7858C25.2829 39.7602 25.2495 39.7346 25.2328 39.7773C24.6576 40.861 23.8823 41.4839 23.1987 41.9703C22.3733 42.5591 21.3479 42.8663 20.3141 43.3186C20.2641 43.3442 20.2224 43.293 20.2474 43.2418C20.9894 42.0727 21.3312 40.733 22.4984 39.837C22.54 39.8029 22.5234 39.7432 22.4734 39.7517C22.0482 39.7773 21.698 39.8029 21.3479 39.82C21.1395 39.8285 20.9227 39.82 20.7143 39.8456C20.3225 39.8797 19.939 39.948 19.5471 39.965C19.4888 39.965 19.4304 39.9736 19.3804 39.9565C19.3387 39.948 19.297 39.9224 19.2637 39.8968C19.1303 39.8285 18.9969 39.7432 18.8635 39.6664C18.7635 39.6152 18.6301 39.5554 18.5134 39.5896C17.9715 39.7773 17.5547 39.4018 17.1795 39.2568C16.5542 39.0093 15.954 38.7277 15.2954 38.6168C15.2037 38.5997 15.1203 38.5571 15.0369 38.5229C15.0286 38.5144 15.0119 38.4803 15.0536 38.4632C15.4621 38.2669 15.8956 38.1901 16.2958 38.0536C16.746 37.9 17.3129 37.7891 17.5797 37.4478C17.9131 37.0296 18.3883 37.3795 18.7385 36.987C18.9219 36.7736 19.5138 36.9272 19.8806 36.9443C20.0474 36.9528 20.1557 36.7139 20.3141 36.731C20.6559 36.7651 20.9977 36.8419 21.3646 36.9016C21.4479 36.9187 21.4646 36.8504 21.4313 36.8248C21.1478 36.6115 20.6226 36.7651 20.6559 36.2702C20.6559 36.219 20.6143 36.1849 20.5892 36.1849C19.7556 36.0483 19.5555 35.8947 19.7139 35.5278C19.4221 35.4083 19.1303 35.2889 18.8135 35.1609C18.8802 35.0243 18.9302 34.9305 18.9552 34.8793C18.5884 34.7257 18.2383 34.5636 17.7881 34.3758C18.0132 34.2222 18.1132 34.154 18.2133 34.0942C17.8214 33.898 17.4379 33.7102 16.9961 33.4799C17.1878 33.3348 17.2712 33.2751 17.3379 33.2239C17.0128 32.9935 16.7043 32.7716 16.3542 32.5241C16.5459 32.4047 16.6459 32.3364 16.7376 32.2852C16.3875 32.0122 16.0707 31.7732 15.7289 31.5087C15.8956 31.3892 15.9873 31.321 16.0624 31.2698C15.8039 30.9455 15.4955 30.6725 15.3204 30.3226C15.1203 29.913 15.1036 29.401 14.8785 29C14.5367 28.3856 14.0949 27.8395 13.678 27.2592C13.5947 27.1397 13.6114 27.0629 13.7364 27.1483C14.0699 27.3616 14.445 27.4981 14.8035 27.6603C15.4454 27.9589 16.0624 28.4197 16.7293 28.488C17.2962 28.5477 17.5213 28.9402 17.9632 29.1536C18.0048 29.0341 18.0465 28.9146 18.1216 28.7184C18.43 29.0682 18.7051 29.3754 18.9969 29.7082C19.0469 29.6058 19.1136 29.4778 19.2053 29.2816C19.4721 29.6143 19.7139 29.913 19.964 30.2287C20.014 30.1519 20.0724 30.0495 20.1891 29.8533C20.4308 30.2543 20.6559 30.6127 20.8894 30.9967C20.9394 30.9028 20.9977 30.8004 21.1311 30.5615C21.3562 30.9882 21.523 31.321 21.7064 31.6623C22.34 31.4319 22.1649 32.1572 22.4984 32.3023C22.6401 32.4047 22.8235 32.4729 22.9152 32.6095C23.132 32.9081 23.0653 33.4543 23.6572 33.3945C23.7322 32.9849 22.9986 32.6265 23.4571 32.1231C23.2904 31.705 23.1236 31.2612 22.9152 30.7407C23.1486 30.7663 23.2487 30.7834 23.3654 30.8005C23.2153 30.4079 23.0736 30.0325 22.9069 29.5802L23.3654 29.6826C23.1903 29.2218 22.8985 28.4538 22.7235 27.993L23.3654 28.2746C23.2153 27.7541 23.0653 27.2421 22.8819 26.6363C23.1486 26.7216 23.2904 26.7728 23.4154 26.8155C23.3404 26.3547 23.2737 25.8854 23.182 25.3051C23.4404 25.416 23.5905 25.4758 23.7405 25.5355C23.6822 25.0235 23.6322 24.5286 23.5655 23.9569L24.1074 24.0678C23.9073 23.2572 24.3158 22.4465 24.6826 21.8833C25.2745 20.9873 25.1578 19.9548 25.5413 19.0503C25.5913 18.9394 25.6914 18.9394 25.7414 19.0503C26.1249 19.9548 26.0082 20.9873 26.6001 21.8833C26.9669 22.4465 27.3837 23.2572 27.1753 24.0678L27.7172 23.9569C27.6505 24.5286 27.6005 25.0235 27.5421 25.5355C27.6838 25.4758 27.8339 25.416 28.1007 25.3051C28.009 25.8768 27.934 26.3462 27.8673 26.8155C28.0006 26.7728 28.1424 26.7301 28.4008 26.6363C28.2257 27.2507 28.0757 27.7541 27.9173 28.2746L28.5592 27.993C28.3841 28.4453 28.0923 29.2218 27.9173 29.6826L28.3758 29.5802C28.2091 30.0239 28.0673 30.4079 27.9173 30.8005C28.034 30.7834 28.134 30.7749 28.3675 30.7407C28.1674 31.2612 27.9923 31.705 27.8256 32.1231C28.2924 32.6265 27.5505 32.9849 27.6255 33.3945C28.2091 33.4457 28.1424 32.9081 28.3675 32.6095C28.4675 32.4729 28.6426 32.4047 28.7843 32.3023C29.1261 32.1572 28.9427 31.4319 29.5763 31.6623C29.7514 31.321 29.9264 30.9882 30.1515 30.5615C30.2849 30.8004 30.3433 30.9114 30.3933 30.9967C30.6351 30.6127 30.8518 30.2543 31.0936 29.8533C31.2103 30.0495 31.2687 30.1519 31.3187 30.2287C31.5771 29.913 31.8189 29.6058 32.0773 29.2816C32.1774 29.4778 32.2357 29.6058 32.2858 29.7082C32.5775 29.3754 32.8527 29.0682 33.1611 28.7184C33.2278 28.9146 33.2778 29.0341 33.3195 29.1536C33.7614 28.9402 33.9865 28.5477 34.5534 28.488C35.212 28.4197 35.8372 27.9589 36.4792 27.6603C36.8376 27.4896 37.2128 27.3616 37.5463 27.1483C37.6713 27.0715 37.688 27.1483 37.6046 27.2592C37.1961 27.8309 36.7543 28.3856 36.4041 29C36.179 29.3925 36.1624 29.913 35.9623 30.3226C35.7955 30.6639 35.4871 30.9455 35.2203 31.2698C35.2953 31.321 35.387 31.3892 35.5538 31.5087C35.212 31.7732 34.8952 32.0122 34.545 32.2852C34.6367 32.3449 34.7368 32.4047 34.9285 32.5241C34.5867 32.7716 34.2699 32.9935 33.9448 33.2239C34.0031 33.2665 34.0948 33.3348 34.2866 33.4799C33.8364 33.7017 33.4612 33.898 33.0694 34.0942C33.1611 34.154 33.2612 34.2222 33.4946 34.3758C33.0527 34.5721 32.6943 34.7257 32.3274 34.8793C32.3524 34.9305 32.3941 35.0158 32.4692 35.1609C32.1607 35.2889 31.8606 35.4083 31.5688 35.5278C31.7189 35.8862 31.5271 36.0483 30.6934 36.1849C30.6684 36.1849 30.6184 36.219 30.6267 36.2702C30.6601 36.7651 30.1349 36.6115 29.8514 36.8248C29.8181 36.8504 29.8264 36.9187 29.9181 36.9016C30.2849 36.8419 30.6267 36.7651 30.9685 36.731C31.1353 36.7139 31.2353 36.9528 31.4021 36.9443C31.7689 36.9272 32.3524 36.7736 32.5442 36.987C32.8943 37.3795 33.3695 37.0296 33.703 37.4478C33.9698 37.7891 34.5367 37.9 34.9869 38.0536C35.387 38.1901 35.8205 38.2669 36.2291 38.4632C36.2707 38.4803 36.2541 38.5144 36.2457 38.5229C36.1624 38.5571 36.0707 38.6083 35.9873 38.6168C35.3203 38.7363 34.7201 39.0179 34.1032 39.2568C33.728 39.4018 33.3112 39.7773 32.7693 39.5896C32.6526 39.5469 32.5192 39.6066 32.4191 39.6664C32.2858 39.7346 32.1524 39.82 32.019 39.8968C31.9773 39.9138 31.9439 39.9394 31.9023 39.9565C31.8439 39.9736 31.7939 39.9736 31.7355 39.965C31.3437 39.9394 30.9602 39.8797 30.5684 39.8456C30.36 39.8285 30.1432 39.837 29.9348 39.82C29.5846 39.8029 29.2262 39.7773 28.8093 39.7517C28.7593 39.7517 28.7426 39.8029 28.7843 39.837C29.9515 40.733 30.2933 42.0727 31.0352 43.2418C31.0686 43.293 31.0269 43.3356 30.9685 43.3186C29.9348 42.8663 28.9177 42.5676 28.084 41.9703C27.4004 41.4754 26.6167 40.8525 26.0498 39.7773C26.0332 39.7432 25.9998 39.7602 25.9915 39.7858C25.8998 40.2552 26.0665 41.5607 26.475 42.5079C27.3087 44.4364 28.826 46.4161 29.3095 46.6123C29.7013 46.7745 29.6263 46.5697 29.6013 46.2539C29.5763 45.998 29.593 45.5542 29.9014 45.5116C30.3766 45.4433 30.9602 45.7932 31.377 45.9894C32.0023 46.2795 32.6109 46.6123 33.2195 46.9451C33.578 47.1414 33.9531 47.423 34.3533 47.5425C34.8118 47.679 34.8118 48.1483 35.1286 48.4299C35.4454 48.7115 35.262 47.7814 36.5792 48.8054C37.8964 49.8293 38.7134 49.9659 38.2632 49.5051C37.8047 49.0358 36.8543 47.7814 36.4875 46.8513C36.1207 45.9212 35.8539 44.4364 35.9873 43.7623C36.1207 43.0967 37.5296 42.3884 38.7134 42.4311C39.8972 42.4738 40.8977 43.1735 41.6646 43.4977C42.44 43.822 43.1152 43.8732 42.615 43.4977C42.1148 43.1223 41.6146 42.525 41.4812 41.6375C41.3478 40.7501 41.7563 40.3832 42.4816 39.7773C43.2069 39.1715 44.891 38.9411 45.5246 38.9411H46.3833C46.3833 38.9411 45.8414 38.7533 45.7997 38.0109C45.758 37.2686 47.4337 36.7992 48.209 36.5688C48.9843 36.3385 50.9768 36.0142 51.2519 35.7753C51.5687 35.5363 49.9347 35.5363 48.8593 35.451Z" fill="#A1C654"/>
</svg>
